<svg id="kity_svg_6" xmlns="http://www.w3.org/2000/svg" xmlns:xlink="http://www.w3.org/1999/xlink" version="1.1" width="1832" height="773" style="background: rgb(251, 251, 251); visibility: visible;" viewBox="0 0 1832 773"><defs id="kity_defs_7"><linearGradient id="kity_linearGradient_17" x1="0" y1="0" x2="0" y2="1"><stop id="kity_stop_18" offset="0" stop-color="rgb(255, 255, 255)"></stop><stop id="kity_stop_19" offset="1" stop-color="rgb(204, 204, 204)"></stop></linearGradient><marker id="kity_marker_2" orient="auto" refX="6" refY="0" viewBox="-7 -7 14 14" markerWidth="7" markerHeight="7" markerUnits="userSpaceOnUse"><path id="kity_path_3" fill="rgb(115, 161, 191)" stroke="none" d="M6,0A6,6,0,1,1,-6,0A6,6,0,1,1,6,0"></path></marker></defs><g id="kity_g_8"><g id="minder1" text-rendering="optimize-speed"><g id="minder_connect_group1"><path id="kity_path_31" fill="none" stroke="rgb(115, 161, 191)" stroke-width="1" d="M660.5,342.5A267,216,0,0,1,927.5,126.5"></path><path id="kity_path_33" fill="none" stroke="rgb(115, 161, 191)" stroke-width="1" d="M1012.5,126.5C1027.5,126.5,1027.5,45.5,1042.5,45.5L1117.5,45.5"></path><path id="kity_path_35" fill="none" stroke="rgb(115, 161, 191)" stroke-width="1" d="M1117.5,45.5C1132.5,45.5,1132.5,45.5,1147.5,45.5L1399.5,45.5"></path><path id="kity_path_37" fill="none" stroke="rgb(115, 161, 191)" stroke-width="1" d="M1012.5,126.5C1027.5,126.5,1027.5,97.5,1042.5,97.5L1102.5,97.5"></path><path id="kity_path_39" fill="none" stroke="rgb(115, 161, 191)" stroke-width="1" d="M1102.5,97.5C1117.5,97.5,1117.5,97.5,1132.5,97.5L1385.5,97.5"></path><path id="kity_path_41" fill="none" stroke="rgb(115, 161, 191)" stroke-width="1" d="M1012.5,126.5C1027.5,126.5,1027.5,149.5,1042.5,149.5L1120.5,149.5"></path><path id="kity_path_43" fill="none" stroke="rgb(115, 161, 191)" stroke-width="1" d="M1120.5,149.5C1135.5,149.5,1135.5,149.5,1150.5,149.5L1584.5,149.5"></path><path id="kity_path_45" fill="none" stroke="rgb(115, 161, 191)" stroke-width="1" d="M1012.5,126.5C1027.5,126.5,1027.5,236.5,1042.5,236.5L1083.5,236.5"></path><path id="kity_path_47" fill="none" stroke="rgb(115, 161, 191)" stroke-width="1" d="M1083.5,236.5C1098.5,236.5,1098.5,219.5,1113.5,219.5L1569.5,219.5"></path><path id="kity_path_49" fill="none" stroke="rgb(115, 161, 191)" stroke-width="1" d="M1083.5,236.5C1098.5,236.5,1098.5,271.5,1113.5,271.5L1372.5,271.5"></path><path id="kity_path_51" fill="none" stroke="rgb(115, 161, 191)" stroke-width="1" d="M660.5,342.5A267,216,0,0,0,927.5,558.5"></path><path id="kity_path_53" fill="none" stroke="rgb(115, 161, 191)" stroke-width="1" d="M1013.5,558.5C1028.5,558.5,1028.5,400.5,1043.5,400.5L1087.5,400.5"></path><path id="kity_path_55" fill="none" stroke="rgb(115, 161, 191)" stroke-width="1" d="M1087.5,400.5C1102.5,400.5,1102.5,400.5,1117.5,400.5L1266.5,400.5"></path><path id="kity_path_57" fill="none" stroke="rgb(115, 161, 191)" stroke-width="1" d="M1266.5,400.5C1281.5,400.5,1281.5,361.5,1296.5,361.5L1376.5,361.5"></path><path id="kity_path_59" fill="none" stroke="rgb(115, 161, 191)" stroke-width="1" d="M1376.5,361.5C1391.5,361.5,1391.5,388.5,1406.5,388.5L1804.5,388.5"></path><path id="kity_path_61" fill="none" stroke="rgb(115, 161, 191)" stroke-width="1" d="M1266.5,400.5C1281.5,400.5,1281.5,440.5,1296.5,440.5L1351.5,440.5"></path><path id="kity_path_63" fill="none" stroke="rgb(115, 161, 191)" stroke-width="1" d="M1351.5,440.5C1366.5,440.5,1366.5,440.5,1381.5,440.5L1466.5,440.5"></path><path id="kity_path_65" fill="none" stroke="rgb(115, 161, 191)" stroke-width="1" d="M1013.5,558.5C1028.5,558.5,1028.5,500.5,1043.5,500.5L1084.5,500.5"></path><path id="kity_path_67" fill="none" stroke="rgb(115, 161, 191)" stroke-width="1" d="M1084.5,500.5C1099.5,500.5,1099.5,509.5,1114.5,509.5L1308.5,509.5"></path><path id="kity_path_69" fill="none" stroke="rgb(115, 161, 191)" stroke-width="1" d="M1308.5,509.5C1323.5,509.5,1323.5,500.5,1338.5,500.5L1418.5,500.5"></path><path id="kity_path_71" fill="none" stroke="rgb(115, 161, 191)" stroke-width="1" d="M1418.5,500.5C1433.5,500.5,1433.5,500.5,1448.5,500.5L1695.5,500.5"></path><path id="kity_path_73" fill="none" stroke="rgb(115, 161, 191)" stroke-width="1" d="M1013.5,558.5C1028.5,558.5,1028.5,601.5,1043.5,601.5L1103.5,601.5"></path><path id="kity_path_75" fill="none" stroke="rgb(115, 161, 191)" stroke-width="1" d="M1103.5,601.5C1118.5,601.5,1118.5,571.5,1133.5,571.5L1303.5,571.5"></path><path id="kity_path_77" fill="none" stroke="rgb(115, 161, 191)" stroke-width="1" d="M1303.5,571.5C1318.5,571.5,1318.5,571.5,1333.5,571.5L1413.5,571.5"></path><path id="kity_path_79" fill="none" stroke="rgb(115, 161, 191)" stroke-width="1" d="M1413.5,571.5C1428.5,571.5,1428.5,580.5,1443.5,580.5L1765.5,580.5"></path><path id="kity_path_81" fill="none" stroke="rgb(115, 161, 191)" stroke-width="1" d="M1103.5,601.5C1118.5,601.5,1118.5,632.5,1133.5,632.5L1326.5,632.5"></path><path id="kity_path_83" fill="none" stroke="rgb(115, 161, 191)" stroke-width="1" d="M1326.5,632.5C1341.5,632.5,1341.5,632.5,1356.5,632.5L1436.5,632.5"></path><path id="kity_path_85" fill="none" stroke="rgb(115, 161, 191)" stroke-width="1" d="M1436.5,632.5C1451.5,632.5,1451.5,632.5,1466.5,632.5L1812.5,632.5"></path><path id="kity_path_87" fill="none" stroke="rgb(115, 161, 191)" stroke-width="1" d="M1013.5,558.5C1028.5,558.5,1028.5,683.5,1043.5,683.5L1112.5,683.5"></path><path id="kity_path_89" fill="none" stroke="rgb(115, 161, 191)" stroke-width="1" d="M1112.5,683.5C1127.5,683.5,1127.5,683.5,1142.5,683.5L1311.5,683.5"></path><path id="kity_path_91" fill="none" stroke="rgb(115, 161, 191)" stroke-width="1" d="M1311.5,683.5C1326.5,683.5,1326.5,683.5,1341.5,683.5L1421.5,683.5"></path><path id="kity_path_93" fill="none" stroke="rgb(115, 161, 191)" stroke-width="1" d="M1421.5,683.5C1436.5,683.5,1436.5,683.5,1451.5,683.5L1676.5,683.5"></path><path id="kity_path_95" fill="none" stroke="rgb(115, 161, 191)" stroke-width="1" d="M1013.5,558.5C1028.5,558.5,1028.5,744.5,1043.5,744.5L1104.5,744.5"></path><path id="kity_path_97" fill="none" stroke="rgb(115, 161, 191)" stroke-width="1" d="M1104.5,744.5C1119.5,744.5,1119.5,744.5,1134.5,744.5L1297.5,744.5"></path><path id="kity_path_99" fill="none" stroke="rgb(115, 161, 191)" stroke-width="1" d="M1297.5,744.5C1312.5,744.5,1312.5,744.5,1327.5,744.5L1407.5,744.5"></path><path id="kity_path_101" fill="none" stroke="rgb(115, 161, 191)" stroke-width="1" d="M1407.5,744.5C1422.5,744.5,1422.5,753.5,1437.5,753.5L1685.5,753.5"></path><path id="kity_path_103" fill="none" stroke="rgb(115, 161, 191)" stroke-width="1" d="M660.5,342.5A267,0,0,0,1,393.5,342.5"></path><path id="kity_path_105" fill="none" stroke="rgb(115, 161, 191)" stroke-width="1" d="M307.5,342.5C292.5,342.5,292.5,356.5,277.5,356.5L236.5,356.5"></path><path id="kity_path_107" fill="none" stroke="rgb(115, 161, 191)" stroke-width="1" d="M236.5,356.5C221.5,356.5,221.5,383.5,206.5,383.5L20.5,383.5"></path></g><g id="minder_node1"><path id="node_outline1" fill="rgb(115, 161, 191)" stroke="rgb(57, 80, 96)" d="M516.5,250.5h288a5,5,0,0,1,5,5v174a5,5,0,0,1,-5,5h-288a5,5,0,0,1,-5,-5v-174a5,5,0,0,1,5,-5z" stroke-width="3"></path><g id="node_text1" fill="white"><text id="kity_text_22" text-rendering="inherit" font-size="16" dy=".8em" y="260.09999990463257" x="535.5">type io.Reader interface {</text><text id="kity_text_196" text-rendering="inherit" font-size="16" dy=".8em" y="284.09999990463257" x="535.5">	&#xa0; &#xa0; Read(p []byte) (n int, err error)</text><text id="kity_text_197" text-rendering="inherit" font-size="16" dy=".8em" y="308.09999990463257" x="535.5">}</text><text id="kity_text_198" text-rendering="inherit" font-size="16" dy=".8em" y="332.09999990463257" x="535.5"></text><text id="kity_text_199" text-rendering="inherit" font-size="16" dy=".8em" y="356.09999990463257" x="535.5">type io.Writer interface {</text><text id="kity_text_200" text-rendering="inherit" font-size="16" dy=".8em" y="380.09999990463257" x="535.5">	Write(p []byte) (n int, err error)</text><text id="kity_text_201" text-rendering="inherit" font-size="16" dy=".8em" y="404.09999990463257" x="535.5">}</text></g></g><g id="kity_g_12"><path id="kity_path_13" fill="none" stroke="none" d="M535.5,342.5h0v0h0z"></path></g><g id="kity_g_14"><path id="kity_path_15" fill="none" stroke="none" d="M535.5,342.5h0v0h0z"></path><path id="kity_path_16" fill="none" stroke="none"></path></g><g id="minder_node2"><g id="node_expander10" style="cursor: pointer;"><path id="kity_path_269" fill="white" stroke="gray" d="M928.5,126.5A6,6,0,1,1,916.5,126.5A6,6,0,1,1,928.5,126.5"></path><path id="kity_path_270" fill="none" stroke="gray" d="M918,126.5L927,126.5"></path></g><path id="node_outline11" fill="rgb(238, 243, 246)" stroke="rgb(115, 161, 191)" d="M932.5,113.5h77a3,3,0,0,1,3,3v20a3,3,0,0,1,-3,3h-77a3,3,0,0,1,-3,-3v-20a3,3,0,0,1,3,-3z" stroke-width="1"></path><g id="node_text11" fill="black"><text id="kity_text_128" text-rendering="inherit" font-size="14" dy=".8em" y="117.40000009536743" x="949.5">谁使用</text></g></g><g id="minder_node3"><g id="node_expander2" style="cursor: pointer;"><path id="kity_path_245" fill="white" stroke="gray" d="M1052.5,31.5A6,6,0,1,1,1040.5,31.5A6,6,0,1,1,1052.5,31.5"></path><path id="kity_path_246" fill="none" stroke="gray" d="M1042,31.5L1051,31.5"></path></g><path id="node_outline3" fill="none" stroke="none" d="M1057.5,20.5h55a5,5,0,0,1,5,5v12a5,5,0,0,1,-5,5h-55a5,5,0,0,1,-5,-5v-12a5,5,0,0,1,5,-5z"></path><g id="node_text3" fill="black"><text id="kity_text_111" text-rendering="inherit" font-size="12" dy=".8em" y="23.700000047683716" x="1062.5">io/ioutil</text></g></g><g id="minder_node4"><g id="node_expander1" display="none" style="cursor: pointer;"><path id="kity_path_242" fill="white" stroke="gray" d="M1157.5,31.5A6,6,0,1,1,1145.5,31.5A6,6,0,1,1,1157.5,31.5"></path><path id="kity_path_243" fill="none" stroke="gray"></path></g><path id="node_outline2" fill="none" stroke="none" d="M1162.5,20.5h232a5,5,0,0,1,5,5v12a5,5,0,0,1,-5,5h-232a5,5,0,0,1,-5,-5v-12a5,5,0,0,1,5,-5z"></path><g id="node_text2" fill="black"><text id="kity_text_109" text-rendering="inherit" font-size="12" dy=".8em" y="23.700000047683716" x="1167.5">func ReadAll(r io.Reader) ([]byte, error)</text></g></g><g id="minder_node5"><g id="node_expander4" style="cursor: pointer;"><path id="kity_path_251" fill="white" stroke="gray" d="M1052.5,83.5A6,6,0,1,1,1040.5,83.5A6,6,0,1,1,1052.5,83.5"></path><path id="kity_path_252" fill="none" stroke="gray" d="M1042,83.5L1051,83.5"></path></g><path id="node_outline5" fill="none" stroke="none" d="M1057.5,72.5h40a5,5,0,0,1,5,5v12a5,5,0,0,1,-5,5h-40a5,5,0,0,1,-5,-5v-12a5,5,0,0,1,5,-5z"></path><g id="node_text5" fill="black"><text id="kity_text_115" text-rendering="inherit" font-size="12" dy=".8em" y="75.70000004768372" x="1062.5">bufio</text></g></g><g id="minder_node6"><g id="node_expander3" display="none" style="cursor: pointer;"><path id="kity_path_248" fill="white" stroke="gray" d="M1142.5,83.5A6,6,0,1,1,1130.5,83.5A6,6,0,1,1,1142.5,83.5"></path><path id="kity_path_249" fill="none" stroke="gray"></path></g><path id="node_outline4" fill="none" stroke="none" d="M1147.5,72.5h233a5,5,0,0,1,5,5v12a5,5,0,0,1,-5,5h-233a5,5,0,0,1,-5,-5v-12a5,5,0,0,1,5,-5z"></path><g id="node_text4" fill="black"><text id="kity_text_113" text-rendering="inherit" font-size="12" dy=".8em" y="75.70000004768372" x="1152.5">func NewReader(rd io.Reader) *Reader</text></g></g><g id="minder_node7"><g id="node_expander6" style="cursor: pointer;"><path id="kity_path_257" fill="white" stroke="gray" d="M1052.5,135.5A6,6,0,1,1,1040.5,135.5A6,6,0,1,1,1052.5,135.5"></path><path id="kity_path_258" fill="none" stroke="gray" d="M1042,135.5L1051,135.5"></path></g><path id="node_outline7" fill="none" stroke="none" d="M1057.5,124.5h58a5,5,0,0,1,5,5v12a5,5,0,0,1,-5,5h-58a5,5,0,0,1,-5,-5v-12a5,5,0,0,1,5,-5z"></path><g id="node_text7" fill="black"><text id="kity_text_119" text-rendering="inherit" font-size="12" dy=".8em" y="127.70000004768372" x="1062.5">net/http</text></g></g><g id="minder_node8"><g id="node_expander5" display="none" style="cursor: pointer;"><path id="kity_path_254" fill="white" stroke="gray" d="M1160.5,135.5A6,6,0,1,1,1148.5,135.5A6,6,0,1,1,1160.5,135.5"></path><path id="kity_path_255" fill="none" stroke="gray"></path></g><path id="node_outline6" fill="none" stroke="none" d="M1165.5,124.5h414a5,5,0,0,1,5,5v12a5,5,0,0,1,-5,5h-414a5,5,0,0,1,-5,-5v-12a5,5,0,0,1,5,-5z"></path><g id="node_text6" fill="black"><text id="kity_text_117" text-rendering="inherit" font-size="12" dy=".8em" y="127.70000004768372" x="1170.5">func NewRequest(method, url string, body io.Reader) (*Request, error)</text></g></g><g id="minder_node9"><g id="node_expander9" style="cursor: pointer;"><path id="kity_path_266" fill="white" stroke="gray" d="M1052.5,222.5A6,6,0,1,1,1040.5,222.5A6,6,0,1,1,1052.5,222.5"></path><path id="kity_path_267" fill="none" stroke="gray" d="M1042,222.5L1051,222.5"></path></g><path id="node_outline10" fill="none" stroke="none" d="M1057.5,211.5h21a5,5,0,0,1,5,5v12a5,5,0,0,1,-5,5h-21a5,5,0,0,1,-5,-5v-12a5,5,0,0,1,5,-5z"></path><g id="node_text10" fill="black"><text id="kity_text_126" text-rendering="inherit" font-size="12" dy=".8em" y="214.70000004768372" x="1062.5">io</text></g></g><g id="minder_node10"><g id="node_expander7" display="none" style="cursor: pointer;"><path id="kity_path_260" fill="white" stroke="gray" d="M1123.5,196.5A6,6,0,1,1,1111.5,196.5A6,6,0,1,1,1123.5,196.5"></path><path id="kity_path_261" fill="none" stroke="gray"></path></g><path id="node_outline8" fill="none" stroke="none" d="M1128.5,176.5h436a5,5,0,0,1,5,5v30a5,5,0,0,1,-5,5h-436a5,5,0,0,1,-5,-5v-30a5,5,0,0,1,5,-5z"></path><g id="node_text8" fill="black"><text id="kity_text_121" text-rendering="inherit" font-size="12" dy=".8em" y="179.70000004768372" x="1133.5">func Copy(dst Writer, src Reader) (written int64, error)</text><text id="kity_text_122" text-rendering="inherit" font-size="12" dy=".8em" y="197.70000004768372" x="1133.5">func CopyBuffer(dst Writer, src Reader, buf []byte) (written int64, err error)</text></g></g><g id="minder_node11"><g id="node_expander8" display="none" style="cursor: pointer;"><path id="kity_path_263" fill="white" stroke="gray" d="M1123.5,257.5A6,6,0,1,1,1111.5,257.5A6,6,0,1,1,1123.5,257.5"></path><path id="kity_path_264" fill="none" stroke="gray"></path></g><path id="node_outline9" fill="none" stroke="none" d="M1128.5,246.5h239a5,5,0,0,1,5,5v12a5,5,0,0,1,-5,5h-239a5,5,0,0,1,-5,-5v-12a5,5,0,0,1,5,-5z"></path><g id="node_text9" fill="black"><text id="kity_text_124" text-rendering="inherit" font-size="12" dy=".8em" y="249.70000004768372" x="1133.5">func MultiWriter(writers ...Writer) Writer</text></g></g><g id="minder_node12"><g id="node_expander36" style="cursor: pointer;"><path id="kity_path_347" fill="white" stroke="gray" d="M928.5,558.5A6,6,0,1,1,916.5,558.5A6,6,0,1,1,928.5,558.5"></path><path id="kity_path_348" fill="none" stroke="gray" d="M918,558.5L927,558.5"></path></g><path id="node_outline37" fill="rgb(238, 243, 246)" stroke="rgb(115, 161, 191)" d="M932.5,545.5h78a3,3,0,0,1,3,3v20a3,3,0,0,1,-3,3h-78a3,3,0,0,1,-3,-3v-20a3,3,0,0,1,3,-3z" stroke-width="1"></path><g id="node_text37" fill="black"><text id="kity_text_186" text-rendering="inherit" font-size="14" dy=".8em" y="549.4000000953674" x="949.5">谁实现</text></g></g><g id="minder_node13"><g id="node_expander16" style="cursor: pointer;"><path id="kity_path_287" fill="white" stroke="gray" d="M1053.5,386.5A6,6,0,1,1,1041.5,386.5A6,6,0,1,1,1053.5,386.5"></path><path id="kity_path_288" fill="none" stroke="gray" d="M1043,386.5L1052,386.5"></path></g><path id="node_outline17" fill="none" stroke="none" d="M1058.5,375.5h24a5,5,0,0,1,5,5v12a5,5,0,0,1,-5,5h-24a5,5,0,0,1,-5,-5v-12a5,5,0,0,1,5,-5z"></path><g id="node_text17" fill="black"><text id="kity_text_143" text-rendering="inherit" font-size="12" dy=".8em" y="378.7000000476837" x="1063.5">os</text></g></g><g id="minder_node14"><g id="node_expander15" style="cursor: pointer;"><path id="kity_path_284" fill="white" stroke="gray" d="M1127.5,386.5A6,6,0,1,1,1115.5,386.5A6,6,0,1,1,1127.5,386.5"></path><path id="kity_path_285" fill="none" stroke="gray" d="M1117,386.5L1126,386.5"></path></g><path id="node_outline16" fill="none" stroke="none" d="M1132.5,375.5h129a5,5,0,0,1,5,5v12a5,5,0,0,1,-5,5h-129a5,5,0,0,1,-5,-5v-12a5,5,0,0,1,5,-5z"></path><g id="node_text16" fill="black"><text id="kity_text_141" text-rendering="inherit" font-size="12" dy=".8em" font-style="italic" y="378.7000000476837" x="1137.5">type File struct {/**/}</text></g></g><g id="minder_node15"><g id="node_expander12" style="cursor: pointer;"><path id="kity_path_275" fill="white" stroke="gray" d="M1306.5,347.5A6,6,0,1,1,1294.5,347.5A6,6,0,1,1,1306.5,347.5"></path><path id="kity_path_276" fill="none" stroke="gray" d="M1296,347.5L1305,347.5"></path></g><path id="node_outline13" fill="none" stroke="none" d="M1311.5,336.5h60a5,5,0,0,1,5,5v12a5,5,0,0,1,-5,5h-60a5,5,0,0,1,-5,-5v-12a5,5,0,0,1,5,-5z"></path><g id="node_text13" fill="black"><text id="kity_text_135" text-rendering="inherit" font-size="12" dy=".8em" y="339.7000000476837" x="1316.5">如何创建</text></g></g><g id="minder_node16"><g id="node_expander11" display="none" style="cursor: pointer;"><path id="kity_path_272" fill="white" stroke="gray" d="M1416.5,347.5A6,6,0,1,1,1404.5,347.5A6,6,0,1,1,1416.5,347.5"></path><path id="kity_path_273" fill="none" stroke="gray"></path></g><path id="node_outline12" fill="none" stroke="none" d="M1421.5,309.5h378a5,5,0,0,1,5,5v66a5,5,0,0,1,-5,5h-378a5,5,0,0,1,-5,-5v-66a5,5,0,0,1,5,-5z"></path><g id="node_text12" fill="black"><text id="kity_text_130" text-rendering="inherit" font-size="12" dy=".8em" y="312.7000000476837" x="1426.5">func Create(name string) (*File, error)</text><text id="kity_text_131" text-rendering="inherit" font-size="12" dy=".8em" y="330.7000000476837" x="1426.5">func NewFile(fd uintptr, name string) *File</text><text id="kity_text_132" text-rendering="inherit" font-size="12" dy=".8em" y="348.7000000476837" x="1426.5">func Open(name string) (*File, error)</text><text id="kity_text_133" text-rendering="inherit" font-size="12" dy=".8em" y="366.7000000476837" x="1426.5">func OpenFile(name string, flag int, perm FileMode) (*File, error)</text></g></g><g id="minder_node17"><g id="node_expander14" style="cursor: pointer;"><path id="kity_path_281" fill="white" stroke="gray" d="M1306.5,426.5A6,6,0,1,1,1294.5,426.5A6,6,0,1,1,1306.5,426.5"></path><path id="kity_path_282" fill="none" stroke="gray" d="M1296,426.5L1305,426.5"></path></g><path id="node_outline15" fill="none" stroke="none" d="M1311.5,415.5h35a5,5,0,0,1,5,5v12a5,5,0,0,1,-5,5h-35a5,5,0,0,1,-5,-5v-12a5,5,0,0,1,5,-5z"></path><g id="node_text15" fill="black"><text id="kity_text_139" text-rendering="inherit" font-size="12" dy=".8em" y="418.7000000476837" x="1316.5">实例</text></g></g><g id="minder_node18"><g id="node_expander13" display="none" style="cursor: pointer;"><path id="kity_path_278" fill="white" stroke="gray" d="M1391.5,426.5A6,6,0,1,1,1379.5,426.5A6,6,0,1,1,1391.5,426.5"></path><path id="kity_path_279" fill="none" stroke="gray"></path></g><path id="node_outline14" fill="none" stroke="none" d="M1396.5,415.5h65a5,5,0,0,1,5,5v12a5,5,0,0,1,-5,5h-65a5,5,0,0,1,-5,-5v-12a5,5,0,0,1,5,-5z"></path><g id="node_text14" fill="black"><text id="kity_text_137" text-rendering="inherit" font-size="12" dy=".8em" y="418.7000000476837" x="1401.5">os.Stdout</text></g></g><g id="minder_node19"><g id="node_expander20" style="cursor: pointer;"><path id="kity_path_299" fill="white" stroke="gray" d="M1053.5,486.5A6,6,0,1,1,1041.5,486.5A6,6,0,1,1,1053.5,486.5"></path><path id="kity_path_300" fill="none" stroke="gray" d="M1043,486.5L1052,486.5"></path></g><path id="node_outline21" fill="none" stroke="none" d="M1058.5,475.5h21a5,5,0,0,1,5,5v12a5,5,0,0,1,-5,5h-21a5,5,0,0,1,-5,-5v-12a5,5,0,0,1,5,-5z"></path><g id="node_text21" fill="black"><text id="kity_text_152" text-rendering="inherit" font-size="12" dy=".8em" y="478.7000000476837" x="1063.5">io</text></g></g><g id="minder_node20"><g id="node_expander19" style="cursor: pointer;"><path id="kity_path_296" fill="white" stroke="gray" d="M1124.5,486.5A6,6,0,1,1,1112.5,486.5A6,6,0,1,1,1124.5,486.5"></path><path id="kity_path_297" fill="none" stroke="gray" d="M1114,486.5L1123,486.5"></path></g><path id="node_outline20" fill="none" stroke="none" d="M1129.5,466.5h174a5,5,0,0,1,5,5v30a5,5,0,0,1,-5,5h-174a5,5,0,0,1,-5,-5v-30a5,5,0,0,1,5,-5z"></path><g id="node_text20" fill="black"><text id="kity_text_149" text-rendering="inherit" font-size="12" dy=".8em" y="469.7000000476837" x="1134.5">type PipeReader struct {/**/}</text><text id="kity_text_150" text-rendering="inherit" font-size="12" dy=".8em" y="487.7000000476837" x="1134.5">type PipeWriter struct {/**/}</text></g></g><g id="minder_node21"><g id="node_expander18" style="cursor: pointer;"><path id="kity_path_293" fill="white" stroke="gray" d="M1348.5,486.5A6,6,0,1,1,1336.5,486.5A6,6,0,1,1,1348.5,486.5"></path><path id="kity_path_294" fill="none" stroke="gray" d="M1338,486.5L1347,486.5"></path></g><path id="node_outline19" fill="none" stroke="none" d="M1353.5,475.5h60a5,5,0,0,1,5,5v12a5,5,0,0,1,-5,5h-60a5,5,0,0,1,-5,-5v-12a5,5,0,0,1,5,-5z"></path><g id="node_text19" fill="black"><text id="kity_text_147" text-rendering="inherit" font-size="12" dy=".8em" y="478.7000000476837" x="1358.5">如何创建</text></g></g><g id="minder_node22"><g id="node_expander17" display="none" style="cursor: pointer;"><path id="kity_path_290" fill="white" stroke="gray" d="M1458.5,486.5A6,6,0,1,1,1446.5,486.5A6,6,0,1,1,1458.5,486.5"></path><path id="kity_path_291" fill="none" stroke="gray"></path></g><path id="node_outline18" fill="none" stroke="none" d="M1463.5,475.5h227a5,5,0,0,1,5,5v12a5,5,0,0,1,-5,5h-227a5,5,0,0,1,-5,-5v-12a5,5,0,0,1,5,-5z"></path><g id="node_text18" fill="black"><text id="kity_text_145" text-rendering="inherit" font-size="12" dy=".8em" y="478.7000000476837" x="1468.5">func Pipe() (*PipeReader, *PipeWriter)</text></g></g><g id="minder_node23"><g id="node_expander27" style="cursor: pointer;"><path id="kity_path_320" fill="white" stroke="gray" d="M1053.5,587.5A6,6,0,1,1,1041.5,587.5A6,6,0,1,1,1053.5,587.5"></path><path id="kity_path_321" fill="none" stroke="gray" d="M1043,587.5L1052,587.5"></path></g><path id="node_outline28" fill="none" stroke="none" d="M1058.5,576.5h40a5,5,0,0,1,5,5v12a5,5,0,0,1,-5,5h-40a5,5,0,0,1,-5,-5v-12a5,5,0,0,1,5,-5z"></path><g id="node_text28" fill="black"><text id="kity_text_167" text-rendering="inherit" font-size="12" dy=".8em" y="579.7000000476837" x="1063.5">bufio</text></g></g><g id="minder_node24"><g id="node_expander23" style="cursor: pointer;"><path id="kity_path_308" fill="white" stroke="gray" d="M1143.5,557.5A6,6,0,1,1,1131.5,557.5A6,6,0,1,1,1143.5,557.5"></path><path id="kity_path_309" fill="none" stroke="gray" d="M1133,557.5L1142,557.5"></path></g><path id="node_outline24" fill="none" stroke="none" d="M1148.5,546.5h150a5,5,0,0,1,5,5v12a5,5,0,0,1,-5,5h-150a5,5,0,0,1,-5,-5v-12a5,5,0,0,1,5,-5z"></path><g id="node_text24" fill="black"><text id="kity_text_159" text-rendering="inherit" font-size="12" dy=".8em" font-style="italic" y="549.7000000476837" x="1153.5">type Reader struct {/**/}</text></g></g><g id="minder_node25"><g id="node_expander22" style="cursor: pointer;"><path id="kity_path_305" fill="white" stroke="gray" d="M1343.5,557.5A6,6,0,1,1,1331.5,557.5A6,6,0,1,1,1343.5,557.5"></path><path id="kity_path_306" fill="none" stroke="gray" d="M1333,557.5L1342,557.5"></path></g><path id="node_outline23" fill="none" stroke="none" d="M1348.5,546.5h60a5,5,0,0,1,5,5v12a5,5,0,0,1,-5,5h-60a5,5,0,0,1,-5,-5v-12a5,5,0,0,1,5,-5z"></path><g id="node_text23" fill="black"><text id="kity_text_157" text-rendering="inherit" font-size="12" dy=".8em" y="549.7000000476837" x="1353.5">如何创建</text></g></g><g id="minder_node26"><g id="node_expander21" display="none" style="cursor: pointer;"><path id="kity_path_302" fill="white" stroke="gray" d="M1453.5,557.5A6,6,0,1,1,1441.5,557.5A6,6,0,1,1,1453.5,557.5"></path><path id="kity_path_303" fill="none" stroke="gray"></path></g><path id="node_outline22" fill="none" stroke="none" d="M1458.5,537.5h302a5,5,0,0,1,5,5v30a5,5,0,0,1,-5,5h-302a5,5,0,0,1,-5,-5v-30a5,5,0,0,1,5,-5z"></path><g id="node_text22" fill="black"><text id="kity_text_154" text-rendering="inherit" font-size="12" dy=".8em" y="540.7000000476837" x="1463.5">func NewReader(rd io.Reader) *Reader</text><text id="kity_text_155" text-rendering="inherit" font-size="12" dy=".8em" y="558.7000000476837" x="1463.5">func NewReaderSize(rd io.Reader, size int) *Reader</text></g></g><g id="minder_node27"><g id="node_expander26" style="cursor: pointer;"><path id="kity_path_317" fill="white" stroke="gray" d="M1143.5,618.5A6,6,0,1,1,1131.5,618.5A6,6,0,1,1,1143.5,618.5"></path><path id="kity_path_318" fill="none" stroke="gray" d="M1133,618.5L1142,618.5"></path></g><path id="node_outline27" fill="none" stroke="none" d="M1148.5,607.5h173a5,5,0,0,1,5,5v12a5,5,0,0,1,-5,5h-173a5,5,0,0,1,-5,-5v-12a5,5,0,0,1,5,-5z"></path><g id="node_text27" fill="black"><text id="kity_text_165" text-rendering="inherit" font-size="12" dy=".8em" y="610.7000000476837" x="1153.5">type ReadWriter struct {/**/}</text></g></g><g id="minder_node28"><g id="node_expander25" style="cursor: pointer;"><path id="kity_path_314" fill="white" stroke="gray" d="M1366.5,618.5A6,6,0,1,1,1354.5,618.5A6,6,0,1,1,1366.5,618.5"></path><path id="kity_path_315" fill="none" stroke="gray" d="M1356,618.5L1365,618.5"></path></g><path id="node_outline26" fill="none" stroke="none" d="M1371.5,607.5h60a5,5,0,0,1,5,5v12a5,5,0,0,1,-5,5h-60a5,5,0,0,1,-5,-5v-12a5,5,0,0,1,5,-5z"></path><g id="node_text26" fill="black"><text id="kity_text_163" text-rendering="inherit" font-size="12" dy=".8em" y="610.7000000476837" x="1376.5">如何创建</text></g></g><g id="minder_node29"><g id="node_expander24" display="none" style="cursor: pointer;"><path id="kity_path_311" fill="white" stroke="gray" d="M1476.5,618.5A6,6,0,1,1,1464.5,618.5A6,6,0,1,1,1476.5,618.5"></path><path id="kity_path_312" fill="none" stroke="gray"></path></g><path id="node_outline25" fill="none" stroke="none" d="M1481.5,607.5h326a5,5,0,0,1,5,5v12a5,5,0,0,1,-5,5h-326a5,5,0,0,1,-5,-5v-12a5,5,0,0,1,5,-5z"></path><g id="node_text25" fill="black"><text id="kity_text_161" text-rendering="inherit" font-size="12" dy=".8em" y="610.7000000476837" x="1486.5">func NewReadWriter(r *Reader, w *Writer) *ReadWriter</text></g></g><g id="minder_node30"><g id="node_expander31" style="cursor: pointer;"><path id="kity_path_332" fill="white" stroke="gray" d="M1053.5,669.5A6,6,0,1,1,1041.5,669.5A6,6,0,1,1,1053.5,669.5"></path><path id="kity_path_333" fill="none" stroke="gray" d="M1043,669.5L1052,669.5"></path></g><path id="node_outline32" fill="none" stroke="none" d="M1058.5,658.5h49a5,5,0,0,1,5,5v12a5,5,0,0,1,-5,5h-49a5,5,0,0,1,-5,-5v-12a5,5,0,0,1,5,-5z"></path><g id="node_text32" fill="black"><text id="kity_text_175" text-rendering="inherit" font-size="12" dy=".8em" y="661.7000000476837" x="1063.5">strings</text></g></g><g id="minder_node31"><g id="node_expander30" style="cursor: pointer;"><path id="kity_path_329" fill="white" stroke="gray" d="M1152.5,669.5A6,6,0,1,1,1140.5,669.5A6,6,0,1,1,1152.5,669.5"></path><path id="kity_path_330" fill="none" stroke="gray" d="M1142,669.5L1151,669.5"></path></g><path id="node_outline31" fill="none" stroke="none" d="M1157.5,658.5h149a5,5,0,0,1,5,5v12a5,5,0,0,1,-5,5h-149a5,5,0,0,1,-5,-5v-12a5,5,0,0,1,5,-5z"></path><g id="node_text31" fill="black"><text id="kity_text_173" text-rendering="inherit" font-size="12" dy=".8em" y="661.7000000476837" x="1162.5">type Reader struct {/**/}</text></g></g><g id="minder_node32"><g id="node_expander29" style="cursor: pointer;"><path id="kity_path_326" fill="white" stroke="gray" d="M1351.5,669.5A6,6,0,1,1,1339.5,669.5A6,6,0,1,1,1351.5,669.5"></path><path id="kity_path_327" fill="none" stroke="gray" d="M1341,669.5L1350,669.5"></path></g><path id="node_outline30" fill="none" stroke="none" d="M1356.5,658.5h60a5,5,0,0,1,5,5v12a5,5,0,0,1,-5,5h-60a5,5,0,0,1,-5,-5v-12a5,5,0,0,1,5,-5z"></path><g id="node_text30" fill="black"><text id="kity_text_171" text-rendering="inherit" font-size="12" dy=".8em" y="661.7000000476837" x="1361.5">如何创建</text></g></g><g id="minder_node33"><g id="node_expander28" display="none" style="cursor: pointer;"><path id="kity_path_323" fill="white" stroke="gray" d="M1461.5,669.5A6,6,0,1,1,1449.5,669.5A6,6,0,1,1,1461.5,669.5"></path><path id="kity_path_324" fill="none" stroke="gray"></path></g><path id="node_outline29" fill="none" stroke="none" d="M1466.5,658.5h205a5,5,0,0,1,5,5v12a5,5,0,0,1,-5,5h-205a5,5,0,0,1,-5,-5v-12a5,5,0,0,1,5,-5z"></path><g id="node_text29" fill="black"><text id="kity_text_169" text-rendering="inherit" font-size="12" dy=".8em" y="661.7000000476837" x="1471.5">func NewReader(s string) *Reader</text></g></g><g id="minder_node34"><g id="node_expander35" style="cursor: pointer;"><path id="kity_path_344" fill="white" stroke="gray" d="M1053.5,730.5A6,6,0,1,1,1041.5,730.5A6,6,0,1,1,1053.5,730.5"></path><path id="kity_path_345" fill="none" stroke="gray" d="M1043,730.5L1052,730.5"></path></g><path id="node_outline36" fill="none" stroke="none" d="M1058.5,719.5h41a5,5,0,0,1,5,5v12a5,5,0,0,1,-5,5h-41a5,5,0,0,1,-5,-5v-12a5,5,0,0,1,5,-5z"></path><g id="node_text36" fill="black"><text id="kity_text_184" text-rendering="inherit" font-size="12" dy=".8em" y="722.7000000476837" x="1063.5">bytes</text></g></g><g id="minder_node35"><g id="node_expander34" style="cursor: pointer;"><path id="kity_path_341" fill="white" stroke="gray" d="M1144.5,730.5A6,6,0,1,1,1132.5,730.5A6,6,0,1,1,1144.5,730.5"></path><path id="kity_path_342" fill="none" stroke="gray" d="M1134,730.5L1143,730.5"></path></g><path id="node_outline35" fill="none" stroke="none" d="M1149.5,719.5h143a5,5,0,0,1,5,5v12a5,5,0,0,1,-5,5h-143a5,5,0,0,1,-5,-5v-12a5,5,0,0,1,5,-5z"></path><g id="node_text35" fill="black"><text id="kity_text_182" text-rendering="inherit" font-size="12" dy=".8em" y="722.7000000476837" x="1154.5">type Buffer struct {/**/}</text></g></g><g id="minder_node36"><g id="node_expander33" style="cursor: pointer;"><path id="kity_path_338" fill="white" stroke="gray" d="M1337.5,730.5A6,6,0,1,1,1325.5,730.5A6,6,0,1,1,1337.5,730.5"></path><path id="kity_path_339" fill="none" stroke="gray" d="M1327,730.5L1336,730.5"></path></g><path id="node_outline34" fill="none" stroke="none" d="M1342.5,719.5h60a5,5,0,0,1,5,5v12a5,5,0,0,1,-5,5h-60a5,5,0,0,1,-5,-5v-12a5,5,0,0,1,5,-5z"></path><g id="node_text34" fill="black"><text id="kity_text_180" text-rendering="inherit" font-size="12" dy=".8em" y="722.7000000476837" x="1347.5">如何创建</text></g></g><g id="minder_node37"><g id="node_expander32" display="none" style="cursor: pointer;"><path id="kity_path_335" fill="white" stroke="gray" d="M1447.5,730.5A6,6,0,1,1,1435.5,730.5A6,6,0,1,1,1447.5,730.5"></path><path id="kity_path_336" fill="none" stroke="gray"></path></g><path id="node_outline33" fill="none" stroke="none" d="M1452.5,710.5h228a5,5,0,0,1,5,5v30a5,5,0,0,1,-5,5h-228a5,5,0,0,1,-5,-5v-30a5,5,0,0,1,5,-5z"></path><g id="node_text33" fill="black"><text id="kity_text_177" text-rendering="inherit" font-size="12" dy=".8em" y="713.7000000476837" x="1457.5">func NewBuffer(buf []byte) *Buffer</text><text id="kity_text_178" text-rendering="inherit" font-size="12" dy=".8em" y="731.7000000476837" x="1457.5">func NewBufferString(s string) *Buffer</text></g></g><g id="minder_node38"><g id="node_expander39" style="cursor: pointer;"><path id="kity_path_356" fill="white" stroke="gray" d="M404.5,342.5A6,6,0,1,1,392.5,342.5A6,6,0,1,1,404.5,342.5"></path><path id="kity_path_357" fill="none" stroke="gray" d="M394,342.5L403,342.5"></path></g><path id="node_outline40" fill="rgb(238, 243, 246)" stroke="rgb(115, 161, 191)" d="M310.5,329.5h78a3,3,0,0,1,3,3v20a3,3,0,0,1,-3,3h-78a3,3,0,0,1,-3,-3v-20a3,3,0,0,1,3,-3z" stroke-width="1"></path><g id="node_text40" fill="black"><text id="kity_text_195" text-rendering="inherit" font-size="14" dy=".8em" y="333.40000009536743" x="327.5">谁拓展</text></g></g><g id="minder_node39"><g id="node_expander38" style="cursor: pointer;"><path id="kity_path_353" fill="white" stroke="gray" d="M279.5,342.5A6,6,0,1,1,267.5,342.5A6,6,0,1,1,279.5,342.5"></path><path id="kity_path_354" fill="none" stroke="gray" d="M269,342.5L278,342.5"></path></g><path id="node_outline39" fill="none" stroke="none" d="M241.5,331.5h21a5,5,0,0,1,5,5v12a5,5,0,0,1,-5,5h-21a5,5,0,0,1,-5,-5v-12a5,5,0,0,1,5,-5z"></path><g id="node_text39" fill="black"><text id="kity_text_193" text-rendering="inherit" font-size="12" dy=".8em" y="334.7000000476837" x="246.5">io</text></g></g><g id="minder_node40"><g id="node_expander37" display="none" style="cursor: pointer;"><path id="kity_path_350" fill="white" stroke="gray" d="M208.5,342.5A6,6,0,1,1,196.5,342.5A6,6,0,1,1,208.5,342.5"></path><path id="kity_path_351" fill="none" stroke="gray"></path></g><path id="node_outline38" fill="none" stroke="none" d="M25.5,304.5h166a5,5,0,0,1,5,5v66a5,5,0,0,1,-5,5h-166a5,5,0,0,1,-5,-5v-66a5,5,0,0,1,5,-5z"></path><g id="node_text38" fill="black"><text id="kity_text_188" text-rendering="inherit" font-size="12" dy=".8em" y="307.7000000476837" x="30.5">type ReadCloser interface {</text><text id="kity_text_189" text-rendering="inherit" font-size="12" dy=".8em" y="325.7000000476837" x="30.5">	&#xa0; &#xa0; Reader</text><text id="kity_text_190" text-rendering="inherit" font-size="12" dy=".8em" y="343.7000000476837" x="30.5">	&#xa0; &#xa0; Closer</text><text id="kity_text_191" text-rendering="inherit" font-size="12" dy=".8em" y="361.7000000476837" x="30.5">}</text></g></g></g></g></svg>